<?xml version="1.0" standalone="no"?>
<!DOCTYPE svg PUBLIC "-//W3C//DTD SVG 20010904//EN"
 "http://www.w3.org/TR/2001/REC-SVG-20010904/DTD/svg10.dtd">
<svg version="1.0" xmlns="http://www.w3.org/2000/svg"
 width="1024.000000pt" height="1024.000000pt" viewBox="0 0 1024.000000 1024.000000"
 preserveAspectRatio="xMidYMid meet">

<g transform="translate(0.000000,1024.000000) scale(0.100000,-0.100000)"
fill="#000000" stroke="none">
<path d="M5070 7680 l0 -510 -145 0 -145 0 -2 -171 -3 -170 -125 106 c-69 59
-167 148 -217 198 l-93 91 -2 -468 -3 -468 -85 76 -85 76 -3 -65 c-3 -65 -3
-65 -33 -65 -16 0 -32 6 -34 13 -2 6 -6 146 -7 310 l-3 297 45 0 c25 0 64 -9
87 -20 47 -21 57 -15 46 27 -4 15 -7 37 -7 48 -1 27 -70 42 -132 28 l-44 -10
0 63 c0 73 -21 145 -57 192 -24 32 -68 60 -78 50 -3 -2 9 -31 27 -63 27 -50
33 -73 36 -143 5 -84 5 -84 -17 -73 -29 16 -77 84 -92 129 -17 56 -58 122 -74
122 -19 0 -19 -9 5 -105 23 -90 52 -141 105 -180 19 -15 35 -32 35 -38 0 -39
-163 -145 -327 -214 -56 -23 -30 -36 61 -31 62 4 93 11 134 32 66 33 127 88
152 135 l19 36 1 -100 c0 -55 -3 -191 -7 -302 l-6 -203 -209 0 -208 0 0 -157
c0 -87 -3 -168 -6 -181 -4 -12 -21 -30 -38 -39 -17 -8 -55 -33 -83 -55 l-53
-40 0 -284 c0 -279 0 -284 -20 -284 l-21 0 3 1004 3 1004 40 12 c22 7 57 21
77 31 49 25 55 24 56 -8 0 -16 1 -59 2 -98 1 -46 -6 -94 -19 -140 -25 -85 -29
-187 -6 -179 25 10 94 123 112 183 21 74 21 228 -1 272 -9 18 -16 36 -16 42 0
5 37 49 83 97 57 59 96 112 124 166 49 94 95 226 91 260 l-3 24 -91 -45 c-123
-60 -193 -124 -241 -223 -33 -66 -38 -86 -40 -156 -2 -87 -14 -107 -53 -86
-12 6 -49 16 -82 21 -34 6 -80 21 -103 34 -37 22 -88 37 -59 17 18 -11 36 -52
30 -67 -7 -20 14 -33 80 -48 l59 -14 -43 -7 c-79 -12 -154 19 -272 114 -36 29
-83 61 -105 71 -38 18 -105 26 -105 13 0 -14 154 -184 189 -209 47 -32 148
-74 179 -75 l22 0 0 -1005 0 -1005 -30 0 -30 0 0 365 0 365 -265 0 -265 0 0
-405 c0 -226 -4 -405 -9 -405 -5 0 -14 6 -20 14 -6 7 -39 26 -74 42 -54 25
-74 29 -157 29 -88 0 -101 -3 -161 -32 -210 -104 -283 -358 -157 -548 37 -55
133 -130 189 -146 21 -7 39 -15 39 -18 -1 -3 -35 -22 -78 -41 -156 -71 -305
-188 -408 -321 -71 -92 -94 -144 -94 -210 l0 -59 223 0 c1622 1 2625 -6 2651
-18 25 -11 31 -11 38 3 8 13 51 15 331 15 276 0 326 -2 345 -16 20 -14 24 -14
38 0 14 14 179 16 1627 16 l1612 0 -5 77 c-5 73 -8 83 -55 153 -27 41 -83 108
-124 148 -75 76 -248 196 -327 229 -24 10 -44 21 -44 24 0 3 25 16 55 28 121
50 212 175 222 303 19 239 -174 435 -412 416 -62 -5 -174 -47 -196 -74 -6 -8
-15 -14 -20 -14 -5 0 -9 69 -9 154 l0 154 -47 40 c-27 21 -63 47 -80 56 l-33
17 0 129 0 130 -180 0 -180 0 0 710 c0 401 4 710 9 710 5 0 13 -6 19 -13 15
-18 110 -62 118 -55 8 9 -20 59 -48 85 -12 12 -45 30 -73 41 l-50 20 35 7 c97
18 254 -100 331 -250 19 -36 38 -65 43 -65 5 0 7 33 4 73 -4 56 -12 86 -33
125 -54 100 -164 180 -275 200 -53 10 -83 7 -205 -17 -27 -5 -51 -8 -53 -7 -1
2 3 27 9 56 19 90 -8 210 -62 271 l-30 34 6 -38 c4 -28 3 -37 -5 -32 -12 7 -8
-34 11 -105 18 -70 11 -77 -25 -25 -22 33 -42 82 -56 139 -41 166 -90 279
-131 305 -21 12 -21 11 -14 -51 23 -214 87 -400 176 -512 22 -27 39 -53 39
-58 0 -5 -23 -31 -50 -58 -58 -57 -171 -116 -249 -130 -71 -13 -242 -13 -278
1 l-28 10 25 -26 c59 -64 189 -102 313 -92 125 9 208 57 284 164 25 35 48 63
52 61 4 -2 27 -12 53 -23 l45 -19 5 -71 c3 -38 2 -407 -1 -820 l-6 -749 -40
-11 c-30 -9 -42 -19 -52 -43 -13 -31 -15 -32 -73 -32 l-61 0 3 435 3 435 -137
0 -138 0 -20 40 c-11 21 -20 51 -20 65 0 14 -2 25 -5 25 -3 0 -62 -50 -130
-112 -123 -110 -125 -112 -125 -155 l0 -43 -90 0 -90 0 -2 -587 c-2 -324 -4
-460 -5 -303 -1 157 -7 494 -13 750 -12 464 -6 975 11 964 5 -3 9 -20 9 -39 0
-34 2 -35 118 -94 133 -68 321 -189 432 -278 41 -33 135 -117 208 -187 l132
-128 0 85 0 85 -117 108 c-208 189 -304 256 -593 410 -102 54 -279 149 -395
211 l-210 112 -3 -1119 -2 -1120 -45 0 -45 0 0 1525 0 1525 -260 0 -260 0 0
-510z m410 -1080 c0 -1463 0 -1470 -20 -1470 -20 0 -20 7 -20 1390 l0 1390
-22 -5 c-17 -4 -38 7 -83 44 l-60 50 -3 -415 -2 -414 -35 0 -35 0 0 450 0 450
140 0 140 0 0 -1470z m-1719 1124 c-30 -63 -73 -124 -129 -184 l-24 -25 5 31
c11 61 61 148 115 201 30 29 57 51 60 49 2 -3 -10 -35 -27 -72z m2036 -606
c-2 -13 -4 -3 -4 22 0 25 2 35 4 23 2 -13 2 -33 0 -45z m146 -554 c4 -289 4
-730 0 -980 l-6 -454 -69 0 -68 0 0 926 0 925 51 55 c91 95 85 128 92 -472z
m-925 470 c27 -8 30 -34 3 -34 -16 0 -20 -10 -26 -62 -4 -35 -5 -92 -3 -128
l4 -65 2 73 c1 40 6 72 12 72 7 0 10 -305 10 -895 0 -492 -3 -895 -7 -895 -5
0 -8 35 -8 77 0 43 -1 412 -3 821 l-2 742 -24 0 -24 0 -4 -820 c-3 -716 -5
-822 -18 -830 -8 -5 -18 -10 -21 -10 -5 0 -5 1949 0 1958 2 5 87 2 109 -4z
m234 -29 c-2 -22 0 -26 7 -16 6 9 9 -321 9 -922 l-1 -936 -26 -5 c-14 -3 -47
-8 -73 -12 l-48 -6 0 966 0 967 68 -3 67 -3 -3 -30z m-652 -175 c52 -46 110
-92 127 -104 l33 -21 0 -827 0 -826 -57 -10 c-32 -6 -59 -9 -59 -8 -1 0 -4
383 -7 850 l-5 849 -50 49 -49 49 -2 -913 c-1 -502 -6 -917 -10 -921 -5 -5
-17 -7 -27 -5 -18 3 -19 37 -22 977 -2 928 -1 973 15 959 10 -8 61 -52 113
-98z m787 -1332 c-1 -205 -2 -40 -2 367 0 407 1 575 2 373 2 -201 2 -534 0
-740z m1102 610 l0 -293 -18 55 c-10 30 -30 80 -44 111 -25 52 -27 65 -27 199
l0 142 43 39 c23 21 43 38 45 39 1 0 2 -132 1 -292z m261 -433 l0 -645 -35 -1
c-19 -1 -44 -1 -55 -1 -11 0 -31 0 -45 1 l-25 1 0 645 0 645 80 0 80 0 0 -645z
m-2580 193 l0 -318 -50 0 -50 0 0 131 0 132 -45 55 c-25 31 -45 65 -45 78 l0
24 -140 0 -140 0 0 103 c0 57 2 106 5 108 2 3 108 5 235 5 l230 0 0 -318z
m2140 193 c0 -71 4 -89 45 -182 l45 -104 0 -368 c0 -346 -1 -368 -17 -363 -16
4 -131 26 -140 26 -2 0 -3 241 -3 535 l0 535 35 0 35 0 0 -79z m-3394 -193
c-3 -13 -6 -282 -6 -599 l0 -575 -71 -17 c-40 -10 -74 -15 -77 -12 -4 3 1 34
11 68 27 104 31 165 13 233 -13 52 -16 130 -16 493 l0 431 76 0 c74 0 76 -1
70 -22z m104 -567 c0 -537 -6 -682 -24 -554 -8 59 -8 1106 0 1127 3 9 10 16
15 16 5 0 9 -250 9 -589z m99 4 c0 -354 -4 -587 -10 -590 -5 -4 -9 218 -9 584
0 374 4 591 10 591 6 0 9 -215 9 -585z m814 503 c27 -13 27 -14 27 -114 l0
-102 -147 -4 c-119 -3 -155 -7 -183 -22 -19 -10 -37 -22 -40 -27 -3 -4 -18
-11 -33 -14 l-27 -7 0 151 0 151 188 0 c129 0 196 -4 215 -12z m3497 -540 c0
-159 -1 -171 -16 -150 -15 22 -18 22 -255 22 l-239 0 0 -22 c0 -13 -7 -31 -14
-41 -12 -16 -14 -16 -20 -1 -3 8 -6 94 -6 190 l0 174 275 0 275 0 0 -172z
m-3850 67 c0 -73 -1 -75 -25 -75 -24 0 -25 2 -25 75 0 73 1 75 25 75 24 0 25
-2 25 -75z m775 -270 l0 -120 -35 -17 c-19 -9 -47 -20 -62 -23 l-28 -7 0 121
c0 96 -3 121 -14 121 -17 0 -26 -63 -26 -175 l0 -83 -90 -36 c-50 -20 -96 -36
-103 -36 -9 0 -12 40 -11 167 1 144 0 155 -6 78 -4 -49 -8 -127 -9 -172 -1
-46 -3 -83 -5 -83 -2 0 -11 -3 -20 -6 -14 -5 -16 15 -16 190 l0 195 158 4 c86
2 182 3 212 2 l55 0 0 -120z m-1855 44 c60 -27 98 -64 126 -124 37 -79 32
-109 -34 -178 -93 -97 -268 -101 -350 -8 l-24 26 21 -40 21 -40 -24 30 c-14
16 -30 51 -37 77 -42 177 138 331 301 257z m1212 -149 c3 -147 1 -169 -12
-165 -48 14 -154 39 -212 50 l-67 13 -3 -67 -3 -66 -82 -3 -83 -3 0 206 0 205
230 0 229 0 3 -170z m4308 160 c82 -23 160 -128 160 -217 0 -34 -7 -50 -32
-79 -40 -45 -142 -94 -197 -94 -50 0 -115 23 -153 55 -16 14 -35 22 -40 19 -6
-4 -8 -2 -4 4 3 5 1 12 -5 14 -7 2 -14 30 -17 61 -6 77 17 135 73 185 65 57
136 74 215 52z m-1972 -144 c156 -21 237 -38 221 -46 -8 -4 -70 -20 -139 -35
-69 -15 -224 -60 -345 -100 l-220 -73 -269 -6 c-349 -9 -572 -36 -916 -112
-257 -57 -552 -132 -695 -179 -44 -14 -106 -31 -137 -37 -32 -7 -58 -16 -58
-21 0 -4 -6 -5 -12 -2 -7 4 -4 -1 6 -9 17 -14 18 -16 3 -16 -9 0 -17 -7 -17
-15 0 -8 -9 -15 -21 -15 -11 0 -18 -4 -15 -9 3 -5 -47 -18 -112 -30 -160 -30
-246 -52 -233 -61 7 -3 -21 -19 -61 -34 -40 -16 -127 -52 -193 -81 -97 -43
-135 -55 -199 -60 -58 -6 -77 -5 -72 4 4 6 13 11 19 11 36 0 728 301 1057 460
612 295 1095 440 1606 479 166 13 664 5 802 -13z m1391 -61 c68 -9 128 -18
132 -21 5 -3 9 -24 9 -48 0 -24 9 -68 19 -98 12 -35 16 -60 10 -69 -5 -9 -9
-10 -9 -2 0 6 -15 14 -32 18 -18 4 -53 14 -78 22 -52 19 -335 24 -510 11 -58
-5 -127 -10 -155 -12 -82 -7 -282 -49 -317 -67 -10 -5 -23 -9 -30 -9 -7 0 -44
-9 -83 -21 -64 -19 -102 -32 -205 -68 -53 -19 -77 -24 -63 -14 8 5 -14 7 -55
5 -37 -3 -69 -8 -72 -11 -3 -4 -22 -7 -43 -7 -36 0 -37 0 -15 14 29 17 24 16
-157 -46 -483 -165 -909 -273 -1242 -317 -131 -17 -461 -32 -488 -21 -16 6
-16 8 -1 31 l16 25 -37 1 c-21 0 43 14 142 30 522 84 822 159 1445 364 428
141 543 176 695 214 218 54 426 89 630 105 122 9 384 4 494 -9z m-4004 -366
c-123 -60 -232 -100 -252 -92 -10 3 -14 2 -10 -2 14 -16 -34 -33 -65 -23 -18
7 -38 6 -61 -1 -19 -7 -43 -9 -53 -5 -16 5 -17 4 -4 -6 12 -9 6 -10 -30 -6
-25 4 -40 3 -33 -1 6 -5 -10 -9 -36 -9 -63 -2 -252 -54 -244 -67 4 -6 0 -8
-10 -4 -20 8 -117 -20 -117 -34 0 -6 -4 -8 -9 -4 -13 7 -103 -29 -94 -39 4 -4
1 -4 -8 -1 -8 3 -85 -30 -174 -77 -282 -145 -315 -159 -315 -141 0 24 118 148
197 207 283 214 750 342 1248 344 l150 0 -80 -39z m4111 -23 c113 -19 313 -76
420 -119 169 -68 354 -197 440 -306 l44 -56 -41 -3 c-34 -3 -51 4 -103 37
-125 82 -232 111 -409 111 -156 0 -264 -28 -432 -110 -76 -37 -85 -39 -172
-39 -51 0 -113 -3 -138 -6 -25 -4 -45 -5 -45 -1 0 10 143 102 218 140 88 44
228 91 335 111 100 19 274 19 352 0 113 -27 107 -15 -22 44 -132 59 -339 87
-626 85 -143 -2 -264 -16 -355 -41 -46 -13 -95 -18 -139 -14 -7 1 -13 10 -13
20 0 10 -7 21 -15 24 -26 10 -184 -43 -482 -163 -202 -81 -299 -116 -317 -113
-31 6 -34 19 -6 28 11 3 23 17 26 31 3 13 11 24 17 24 6 0 8 2 6 5 -3 2 -50
-11 -104 -31 -54 -19 -112 -34 -129 -32 -30 3 -29 4 19 22 28 11 127 54 220
96 354 160 582 232 855 270 101 14 490 5 596 -14z m-1496 -16 c-19 -13 -30
-13 -30 0 0 6 10 10 23 10 18 0 19 -2 7 -10z m830 -170 c0 -5 -5 -10 -11 -10
-5 0 -7 5 -4 10 3 6 8 10 11 10 2 0 4 -4 4 -10z m37 4 c-3 -3 -12 -4 -19 -1
-8 3 -5 6 6 6 11 1 17 -2 13 -5z m368 -69 c-5 -3 -64 -18 -130 -36 -135 -35
-280 -91 -403 -156 -68 -37 -90 -44 -128 -41 l-46 3 149 74 c179 89 252 118
363 141 71 16 227 27 195 15z m-235 -106 c0 -5 6 -7 13 -3 6 4 3 -2 -7 -15
-13 -14 -22 -18 -26 -10 -6 8 -13 8 -30 -1 -12 -6 -24 -9 -27 -6 -3 3 2 8 11
12 13 5 14 9 5 20 -9 12 -5 14 25 14 20 0 36 -5 36 -11z m-1015 -59 c-27 -12
-43 -12 -25 0 8 5 22 9 30 9 10 0 8 -3 -5 -9z"/>
<path d="M5222 5940 c0 -14 2 -19 5 -12 2 6 2 18 0 25 -3 6 -5 1 -5 -13z"/>
<path d="M3380 4300 c0 -5 4 -10 9 -10 6 0 13 5 16 10 3 6 -1 10 -9 10 -9 0
-16 -4 -16 -10z"/>
<path d="M3125 4440 c3 -5 12 -7 20 -3 21 7 19 13 -6 13 -11 0 -18 -4 -14 -10z"/>
<path d="M4885 7799 c-221 -18 -454 -66 -681 -140 -140 -45 -314 -116 -381
-156 -42 -24 -43 -26 -43 -79 0 -62 -17 -64 162 12 336 142 609 213 939 244
l127 12 5 51 c7 53 3 68 -16 66 -7 -1 -57 -5 -112 -10z"/>
<path d="M5670 7697 l0 -54 128 -42 c188 -63 327 -122 522 -222 l174 -91 58
28 c32 15 58 30 58 33 -1 24 -410 231 -585 296 -106 40 -319 105 -342 105 -9
0 -13 -15 -13 -53z"/>
<path d="M4777 7374 c-147 -23 -367 -79 -367 -93 0 -4 17 -24 38 -44 l38 -38
116 30 c63 17 180 37 259 47 79 9 150 18 157 20 7 2 12 21 12 49 l0 45 -82 -1
c-46 -1 -122 -7 -171 -15z"/>
<path d="M6990 7171 c0 -5 -8 -7 -17 -5 -10 3 -33 -8 -52 -23 l-33 -29 56 -48
56 -48 0 81 c0 45 -2 81 -5 81 -3 0 -5 -4 -5 -9z"/>
<path d="M2974 6878 c-266 -276 -476 -630 -613 -1032 -47 -138 -128 -462 -118
-473 3 -2 31 -1 62 4 l57 8 38 150 c119 469 344 926 606 1230 49 57 52 64 58
133 4 39 5 72 3 72 -2 0 -44 -42 -93 -92z"/>
<path d="M3538 6819 l-88 -71 0 -56 0 -56 31 30 c75 70 146 161 152 192 4 17
3 32 -1 31 -4 0 -46 -32 -94 -70z"/>
<path d="M7290 6750 l0 -85 68 -95 c221 -306 383 -663 462 -1015 13 -55 27
-117 32 -137 l9 -38 59 0 c33 0 60 1 60 3 0 22 -46 244 -64 313 -61 224 -180
503 -301 704 -56 92 -218 313 -290 395 l-35 40 0 -85z"/>
<path d="M3111 6415 c-65 -76 -124 -160 -175 -247 l-28 -48 56 0 c52 0 56 2
82 38 15 20 52 69 81 109 l54 71 -3 77 -3 76 -64 -76z"/>
<path d="M7282 6098 l3 -83 53 -2 c28 -2 52 0 52 3 0 12 -95 164 -103 164 -4
0 -7 -37 -5 -82z"/>
<path d="M6983 3692 c-6 -4 -50 -97 -96 -207 -120 -281 -130 -305 -137 -305
-3 0 -32 96 -64 213 -31 116 -62 227 -68 245 -9 32 -10 32 -74 32 -68 0 -69
-1 -55 -46 5 -16 44 -146 86 -289 41 -143 84 -285 94 -315 l18 -55 53 0 53 0
79 195 c44 107 87 214 96 238 9 23 19 42 22 42 3 0 11 -17 17 -37 9 -31 65
-166 169 -410 13 -31 17 -33 64 -33 l49 0 21 73 c51 170 105 352 146 485 24
78 44 145 44 147 0 3 -29 5 -65 5 l-64 0 -12 -42 c-26 -101 -99 -347 -117
-398 l-19 -55 -18 40 c-9 22 -52 126 -95 230 -70 169 -108 255 -113 255 -1 0
-7 -4 -14 -8z"/>
<path d="M1995 3671 c-146 -24 -252 -137 -274 -293 -23 -169 43 -323 170 -393
52 -29 59 -30 202 -33 82 -2 164 -1 183 3 l34 6 0 169 0 170 -75 0 -75 0 0
-41 c0 -24 4 -38 10 -34 6 4 10 -21 10 -69 l0 -75 -36 -7 c-163 -31 -307 95
-290 254 12 107 74 186 165 213 20 6 74 9 121 7 l85 -3 28 47 c15 26 27 49 27
52 0 22 -196 41 -285 27z"/>
<path d="M2470 3316 l0 -356 65 0 65 0 0 126 0 126 43 -7 c23 -4 47 -14 52
-22 99 -152 151 -227 158 -225 4 1 39 2 78 2 l71 0 -34 43 c-44 54 -158 218
-158 228 0 4 10 9 23 13 30 7 87 64 103 103 18 42 18 142 0 184 -8 19 -29 48
-48 66 -57 55 -96 65 -265 71 l-153 5 0 -357z m280 216 c20 -9 44 -33 55 -54
18 -34 19 -40 5 -79 -21 -60 -54 -81 -139 -87 l-71 -5 0 122 0 121 58 0 c34 0
71 -7 92 -18z"/>
<path d="M3110 3315 l0 -355 235 0 235 0 0 54 c0 40 -4 55 -16 60 -9 3 -85 6
-170 6 l-155 0 3 98 3 97 128 3 127 3 0 54 0 55 -125 0 -125 0 0 80 0 80 165
0 165 0 0 60 0 60 -235 0 -235 0 0 -355z"/>
<path d="M3750 3315 l0 -355 230 0 230 0 0 60 0 60 -165 0 -166 0 3 98 3 97
123 3 122 3 0 54 0 54 -122 3 -123 3 0 75 0 75 163 3 162 2 0 60 0 60 -230 0
-230 0 0 -355z"/>
<path d="M4360 3315 l0 -355 65 0 65 0 0 237 0 237 41 -39 c47 -45 292 -314
356 -390 41 -48 44 -50 88 -47 l45 4 0 349 c0 334 -1 349 -19 349 -10 0 -39 3
-64 6 l-47 7 -2 -239 -3 -238 -114 130 c-63 71 -160 177 -214 237 l-99 107
-49 0 -49 0 0 -355z"/>
<path d="M5550 3315 l0 -355 65 0 65 0 0 355 0 355 -65 0 -65 0 0 -355z"/>
<path d="M5820 3615 l0 -55 58 0 c31 0 81 -3 110 -6 l52 -7 0 -293 0 -294 60
0 60 0 2 298 3 297 113 3 112 3 0 54 0 55 -285 0 -285 0 0 -55z"/>
<path d="M7660 3315 l0 -355 65 0 65 0 0 355 0 355 -65 0 -65 0 0 -355z"/>
<path d="M7950 3315 l0 -355 65 0 65 0 0 241 0 241 68 -73 c66 -72 279 -311
334 -377 23 -27 33 -32 72 -32 l45 0 -4 337 -4 338 -23 6 c-13 3 -40 9 -60 13
l-38 7 -2 -233 -3 -232 -145 164 c-80 91 -176 197 -214 237 -65 69 -71 73
-112 73 l-44 0 0 -355z"/>
<path d="M4384 2700 c-106 -22 -207 -102 -251 -197 -13 -28 -28 -85 -32 -126
-26 -228 104 -396 325 -422 53 -6 202 7 239 21 9 4 15 30 17 85 2 43 1 79 0
79 -2 0 -17 -9 -33 -21 -39 -27 -82 -39 -149 -40 -112 -2 -190 42 -237 135
-74 144 5 322 158 355 82 18 131 11 229 -33 13 -5 18 5 28 50 10 51 10 58 -6
70 -51 39 -204 62 -288 44z"/>
<path d="M5200 2635 l0 -65 105 0 105 0 0 -305 0 -305 65 0 65 0 0 305 0 305
53 0 c28 0 76 3 105 6 l52 7 0 58 0 59 -275 0 -275 0 0 -65z"/>
<path d="M5923 2691 l-62 -6 114 -210 114 -210 1 -152 0 -153 65 0 65 0 0 150
0 150 69 123 c131 232 169 302 164 310 -7 12 -130 8 -141 -5 -6 -7 -42 -75
-80 -151 -38 -76 -72 -139 -75 -140 -3 -1 -40 67 -81 151 -42 83 -79 151 -83
150 -5 -1 -36 -4 -70 -7z"/>
<path d="M4910 2325 l0 -365 65 0 65 0 0 365 0 365 -65 0 -65 0 0 -365z"/>
</g>
</svg>
